PathFileType	4	(X/Y/Z)	C:/Users/opensim2020/Desktop/walking_exp_matlab/subject06_walking22_straight_04.trc																																																																																																																																		
DataRate	CameraRate	NumFrames	NumMarkers	Units	OrigDataRate	OrigDataStartFrame	OrigNumFrames																																																																																																																														
100	100	6	44	mm	100	2226	102																																																																																																																														
Frame#	Time	LFHD			RFHD			LBHD			RBHD			C7			T10			CLAV			STRN			RBAK			LSHO			LUPA			LELB			LFRM			LWRA			LWRB			LFIN			RSHO			RUPA			RELB			RFRM			RWRA			RWRB			RFIN			LASI			RASI			LPSI			RPSI			LTHI			LKNE			LTIB			LANK			LHEE			LTOE			RTHI			RKNE			RTIB			RANK			RHEE			RTOE			*39			*40			*41			*42			*43		
		X1	Y1	Z1	X2	Y2	Z2	X3	Y3	Z3	X4	Y4	Z4	X5	Y5	Z5	X6	Y6	Z6	X7	Y7	Z7	X8	Y8	Z8	X9	Y9	Z9	X10	Y10	Z10	X11	Y11	Z11	X12	Y12	Z12	X13	Y13	Z13	X14	Y14	Z14	X15	Y15	Z15	X16	Y16	Z16	X17	Y17	Z17	X18	Y18	Z18	X19	Y19	Z19	X20	Y20	Z20	X21	Y21	Z21	X22	Y22	Z22	X23	Y23	Z23	X24	Y24	Z24	X25	Y25	Z25	X26	Y26	Z26	X27	Y27	Z27	X28	Y28	Z28	X29	Y29	Z29	X30	Y30	Z30	X31	Y31	Z31	X32	Y32	Z32	X33	Y33	Z33	X34	Y34	Z34	X35	Y35	Z35	X36	Y36	Z36	X37	Y37	Z37	X38	Y38	Z38	X39	Y39	Z39	X40	Y40	Z40	X41	Y41	Z41	X42	Y42	Z42	X43	Y43	Z43	X44	Y44	Z44
																																																																																																																																					
39	0.38	-163.76637	1648.50659	878.69611	-153.48413	1646.96594	1010.90076	-302.03851	1612.35535	893.96973	-289.26755	1615.22498	1022.2998	-312.36362	1452.03491	947.8866	-359.19608	1124.01257	957.90265	-205.49422	1370.57935	958.00635	-172.2034	1195.3667	958.32001	-399.44812	1286.73401	1019.75696	-246.61938	1402.27173	792.54077	-239.78532	1201.23645	717.46008	-239.33295	1088.41833	703.01697	-191.47739	944.92902	685.12189	-116.53848	843.14453	733.71326	-172.20335	826.95209	693.26685	-117.08263	755.85236	695.1532	-266.04886	1406.48547	1113.85803	-342.47849	1223.53992	1203.8446	-357.7074	1102.32129	1221.65625	-363.78015	982.59882	1243.90771	-327.54666	834.68079	1218.05542	-381.57083	845.71643	1258.44653	-359.0947	763.31281	1259.55176	-176.98732	963.41437	864.06818	-194.50693	967.75403	1081.50867	-336.21487	991.85968	881.48322	-341.85678	987.97394	1048.39587	-239.73434	647.12878	808.00903	-240.86987	483.32233	835.0838	-308.66577	233.26698	845.75073	-339.59653	65.81098	894.33936	-383.0239	54.11204	938.12598	-198.02301	35.46832	899.8623	-162.93388	645.9447	1142.51587	-108.0537	532.49646	1123.82446	-206.21611	289.6225	1111.09766	-272.78619	117.50997	1062.96863	-309.31058	99.92689	1010.96039	-140.51105	50.77219	1092.599	-252.65923	1703.71008	942.89276	NaN	NaN	NaN	NaN	NaN	NaN	NaN	NaN	NaN	NaN	NaN	NaN
40	0.39	-149.39561	1647.63416	879.9165	-139.29292	1645.94421	1011.59381	-287.83609	1611.50781	894.53918	-275.15878	1614.23059	1022.92102	-298.16809	1451.14758	948.10541	-345.27975	1123.10559	958.09735	-191.47914	1369.5929	958.18597	-158.27242	1194.40125	957.89099	-385.4418	1285.55432	1019.31995	-232.5323	1401.59717	792.79474	-223.56538	1201.05603	716.7937	-220.84659	1088.40503	701.62177	-167.79889	946.72333	684.57825	-88.09882	848.90326	733.55304	-143.18773	829.60364	693.73956	-84.55402	761.39844	695.84332	-252.2466	1405.05432	1114.15979	-331.57553	1223.06885	1202.96631	-348.51575	1102.12329	1220.95581	-358.32187	982.67853	1243.56921	-326.86911	833.33374	1218.59924	-380.91422	846.42731	1258.75745	-361.50943	763.23547	1260.11377	-164.9398	961.87823	862.58087	-179.60847	966.82581	1079.88391	-323.54813	990.9046	882.323	-326.95465	987.2179	1049.32764	-231.58075	646.23541	807.85303	-235.65881	482.31943	834.90314	-305.99643	232.8676	845.70917	-339.1532	65.97044	894.58362	-382.74426	54.58581	938.40729	-197.84044	35.34787	899.79822	-145.19907	646.80334	1142.68555	-90.03249	533.54846	1123.13879	-176.19875	284.87756	1111.81799	-231.43663	108.55381	1064.40771	-266.63312	88.64999	1012.21729	-95.69288	49.838	1094.5238	-238.4561	1702.75842	943.57904	NaN	NaN	NaN	NaN	NaN	NaN	NaN	NaN	NaN	NaN	NaN	NaN
41	0.4	-135.26718	1646.5155	880.25653	-125.17578	1644.66028	1012.29706	-273.72617	1610.44019	895.02618	-261.27954	1612.98523	1023.67072	-284.08835	1450.05969	948.4577	-331.39227	1121.91614	958.39966	-177.4371	1368.34888	958.43524	-144.31685	1193.12329	957.43274	-371.44781	1284.10901	1019.00348	-218.39661	1400.67407	793.08478	-207.40823	1200.62292	716.24329	-203.06108	1087.94666	700.37402	-144.21378	948.44293	683.94922	-60.18097	854.91956	733.56805	-114.64152	832.63562	694.04102	-52.44437	767.46619	696.64246	-238.24345	1403.39087	1114.45898	-320.24277	1222.41296	1202.43982	-339.259	1101.79688	1220.3064	-352.7012	982.73346	1243.25708	-326.03302	832.36639	1219.47815	-379.96103	847.38202	1258.96899	-363.42947	763.65222	1261.15747	-152.21153	960.44269	861.02216	-164.38716	965.66327	1078.65869	-310.79391	989.66321	883.18817	-312.09851	986.06171	1050.23706	-222.88805	645.11987	807.87128	-229.25046	481.09448	834.56506	-303.1171	232.63605	845.70709	-338.66193	66.1892	894.81018	-382.38727	55.08736	938.64117	-197.58569	35.13662	899.93689	-127.94867	646.90778	1142.99902	-72.72087	533.92267	1122.60388	-146.38725	280.27951	1112.32617	-189.81854	100.36895	1065.90698	-223.93591	78.57476	1013.86371	-50.87225	49.26052	1096.20715	-224.2639	1701.55737	944.27625	NaN	NaN	NaN	NaN	NaN	NaN	NaN	NaN	NaN	NaN	NaN	NaN
42	0.41	-121.02398	1645.13562	881.02203	-111.0378	1643.09802	1013.07202	-259.46323	1608.96985	895.65143	-247.06674	1611.34192	1024.37622	-269.86057	1448.71228	948.81714	-317.55637	1120.53503	958.86633	-163.28897	1366.8158	958.68518	-130.45042	1191.58264	957.01971	-357.39401	1282.54749	1018.85388	-204.25455	1399.47913	793.40167	-191.3429	1199.87854	715.76251	-184.8445	1087.48474	699.13422	-120.72665	950.31567	683.24988	-32.66409	861.19086	733.75885	-86.17088	835.91217	694.65063	-20.71836	774.02374	697.50482	-224.16158	1401.48828	1114.79858	-308.99561	1221.55591	1201.80042	-329.97668	1101.35437	1219.72351	-346.85895	982.80634	1243.02747	-325.086	831.32623	1220.33008	-378.37967	848.34027	1259.12256	-364.9212	764.12341	1261.87634	-139.6039	958.78229	859.77606	-149.15704	964.23169	1077.64307	-297.98309	988.12701	884.01349	-297.15631	984.50195	1051.0343	-213.95894	643.79785	808.16052	-222.79839	479.81818	834.57312	-299.98862	232.42645	846.01593	-338.07059	66.42666	895.11151	-381.96225	55.66539	938.9491	-197.38556	35.08899	899.68127	-111.28974	646.22894	1143.39624	-55.74401	533.3197	1122.03931	-116.22406	275.61292	1113.3479	-148.06326	93.02273	1067.505	-180.23976	69.15099	1015.25562	-6.12111	49.27443	1097.52002	-210.15967	1700.02893	945.10785	NaN	NaN	NaN	NaN	NaN	NaN	NaN	NaN	NaN	NaN	NaN	NaN
43	0.42	-106.88445	1643.58459	881.87952	-96.91199	1641.30786	1013.9162	-245.20258	1607.18494	896.49426	-232.94527	1609.3418	1025.06506	-255.56116	1446.98938	949.14429	-303.63248	1118.92004	959.46936	-149.18289	1364.96973	958.90521	-116.55387	1189.71484	956.53015	-343.33429	1280.79651	1018.78528	-190.11935	1398.0741	793.685	-175.28032	1198.97559	715.33765	-166.99455	1086.61133	698.26648	-97.72583	952.38715	682.98328	-6.06592	867.53973	734.28033	-58.09343	839.60925	694.92487	10.43895	781.10284	698.36365	-209.93182	1399.37122	1115.12109	-297.71951	1220.60583	1201.08057	-320.59167	1100.83606	1219.23645	-340.84451	982.854	1242.85193	-322.71494	830.68396	1221.25134	-376.45184	849.435	1259.2478	-365.66098	764.82483	1262.75562	-126.85397	956.81476	858.48456	-133.91821	962.56073	1076.82068	-285.07111	986.36908	884.8335	-282.33078	982.62982	1051.82898	-204.60834	642.32098	808.742	-215.87164	478.37677	834.69153	-296.67258	232.14116	846.44006	-337.45065	66.75542	895.51874	-381.43848	56.34583	939.41266	-197.09702	35.0064	899.72559	-95.42448	644.62573	1143.64868	-39.2692	532.12787	1121.90796	-86.36533	271.19009	1114.39026	-106.13576	86.64137	1069.48682	-137.3331	61.44934	1017.50391	38.32441	50.15016	1098.53894	-196.02805	1698.27747	946.0119	NaN	NaN	NaN	NaN	NaN	NaN	NaN	NaN	NaN	NaN	NaN	NaN
44	0.43	-92.67597	1641.7627	882.77533	-82.80227	1639.21265	1014.84814	-231.01358	1605.23816	897.26563	-218.83482	1607.07593	1025.81055	-241.45384	1445.12366	949.58691	-289.66818	1117.07935	960.2865	-135.5489	1362.67163	959.18115	-102.56177	1187.65845	956.09229	-329.23825	1278.85608	1018.81763	-175.9075	1396.5271	794.03986	-159.37405	1197.896	715.06555	-148.66385	1085.98047	697.4314	-74.91168	954.37244	683.15424	20.49008	874.16821	734.69348	-29.99189	843.43109	696.04681	40.84218	788.4939	699.34259	-195.69557	1397.08447	1115.48523	-286.21317	1219.53979	1200.59851	-311.16943	1100.21741	1218.80029	-334.55536	982.89423	1242.71777	-320.75919	830.10175	1222.45532	-374.27823	850.64642	1259.44556	-365.86185	765.72766	1263.64819	-113.99906	954.80029	857.47131	-118.65825	960.59375	1076.15503	-272.02969	984.4101	885.68738	-267.38315	980.4754	1052.62231	-195.04185	640.67773	808.4187	-208.40672	476.71774	834.89343	-293.02441	231.76045	846.92816	-336.78198	67.1122	895.9809	-380.93976	57.14329	939.94232	-196.71173	34.75616	899.95325	-80.03997	642.39478	1144.18921	-23.66751	530.08905	1121.64636	-56.82392	267.0892	1115.55457	-64.3781	81.47365	1071.75366	-93.98647	54.55011	1019.94836	82.32176	51.81038	1099.42383	-181.93747	1696.23755	946.98981	NaN	NaN	NaN	NaN	NaN	NaN	NaN	NaN	NaN	NaN	NaN	NaN
